<svg width="50" height="50" viewBox="0 0 50 50" fill="none" xmlns="http://www.w3.org/2000/svg">
<path d="M25 3.90625C20.8281 3.90625 16.7498 5.14338 13.2809 7.46119C9.8121 9.779 7.10846 13.0734 5.51193 16.9278C3.91539 20.7822 3.49766 25.0234 4.31157 29.1152C5.12548 33.207 7.13446 36.9655 10.0845 39.9155C13.0345 42.8655 16.793 44.8745 20.8848 45.6884C24.9766 46.5023 29.2179 46.0846 33.0722 44.4881C36.9266 42.8915 40.221 40.1879 42.5388 36.7191C44.8566 33.2502 46.0938 29.1719 46.0938 25C46.0876 19.4075 43.8632 14.0458 39.9087 10.0913C35.9542 6.13682 30.5925 3.91245 25 3.90625ZM25 41.4062C21.7552 41.4062 18.5832 40.444 15.8852 38.6413C13.1872 36.8386 11.0844 34.2762 9.84261 31.2784C8.60086 28.2805 8.27596 24.9818 8.909 21.7993C9.54204 18.6168 11.1046 15.6935 13.399 13.399C15.6935 11.1046 18.6168 9.54203 21.7993 8.90899C24.9818 8.27595 28.2806 8.60085 31.2784 9.8426C34.2763 11.0844 36.8386 13.1872 38.6413 15.8852C40.444 18.5832 41.4063 21.7551 41.4063 25C41.4016 29.3498 39.6716 33.5201 36.5958 36.5958C33.5201 39.6716 29.3498 41.4016 25 41.4062ZM34.4707 23.3418C34.6892 23.5595 34.8626 23.8183 34.9809 24.1032C35.0992 24.388 35.1601 24.6935 35.1601 25.002C35.1601 25.3104 35.0992 25.6159 34.9809 25.9007C34.8626 26.1856 34.6892 26.4444 34.4707 26.6621L28.2207 32.9121C28.0027 33.1301 27.7439 33.3031 27.459 33.4211C27.1742 33.539 26.8689 33.5998 26.5606 33.5998C26.2522 33.5998 25.9469 33.539 25.6621 33.4211C25.3772 33.3031 25.1184 33.1301 24.9004 32.9121C24.6824 32.6941 24.5094 32.4353 24.3915 32.1504C24.2735 31.8656 24.2127 31.5603 24.2127 31.252C24.2127 30.9436 24.2735 30.6383 24.3915 30.3535C24.5094 30.0686 24.6824 29.8098 24.9004 29.5918L27.1484 27.3438H17.1875C16.5659 27.3438 15.9698 27.0968 15.5302 26.6573C15.0907 26.2177 14.8438 25.6216 14.8438 25C14.8438 24.3784 15.0907 23.7823 15.5302 23.3427C15.9698 22.9032 16.5659 22.6562 17.1875 22.6562H27.1484L24.8984 20.4082C24.6804 20.1902 24.5075 19.9314 24.3895 19.6465C24.2715 19.3617 24.2108 19.0564 24.2108 18.748C24.2108 18.4397 24.2715 18.1344 24.3895 17.8496C24.5075 17.5647 24.6804 17.3059 24.8984 17.0879C25.1165 16.8699 25.3753 16.6969 25.6601 16.5789C25.945 16.461 26.2503 16.4002 26.5586 16.4002C26.8669 16.4002 27.1722 16.461 27.4571 16.5789C27.7419 16.6969 28.0007 16.8699 28.2188 17.0879L34.4707 23.3418Z" fill="#EDD98A"/>
</svg>
