<svg width="50" height="50" viewBox="0 0 50 50" fill="none" xmlns="http://www.w3.org/2000/svg">
<path d="M25 3.90625C20.8281 3.90625 16.7498 5.14338 13.2809 7.46119C9.8121 9.779 7.10846 13.0734 5.51193 16.9278C3.91539 20.7822 3.49766 25.0234 4.31157 29.1152C5.12548 33.207 7.13446 36.9655 10.0845 39.9155C13.0345 42.8655 16.793 44.8745 20.8848 45.6884C24.9766 46.5023 29.2179 46.0846 33.0722 44.4881C36.9266 42.8915 40.221 40.1879 42.5388 36.7191C44.8566 33.2502 46.0938 29.1719 46.0938 25C46.0876 19.4075 43.8632 14.0458 39.9087 10.0913C35.9542 6.13682 30.5925 3.91245 25 3.90625ZM25 41.4062C21.7552 41.4062 18.5832 40.444 15.8852 38.6413C13.1872 36.8386 11.0844 34.2762 9.84261 31.2784C8.60086 28.2805 8.27596 24.9818 8.909 21.7993C9.54204 18.6168 11.1046 15.6935 13.399 13.399C15.6935 11.1046 18.6168 9.54203 21.7993 8.90899C24.9818 8.27595 28.2806 8.60085 31.2784 9.8426C34.2763 11.0844 36.8386 13.1872 38.6413 15.8852C40.444 18.5832 41.4063 21.7551 41.4063 25C41.4016 29.3498 39.6716 33.5201 36.5958 36.5958C33.5201 39.6716 29.3498 41.4016 25 41.4062ZM35.1563 25C35.1563 25.6216 34.9093 26.2177 34.4698 26.6573C34.0303 27.0968 33.4341 27.3438 32.8125 27.3438H22.8516L25.1016 29.5918C25.5419 30.0321 25.7892 30.6293 25.7892 31.252C25.7892 31.8746 25.5419 32.4718 25.1016 32.9121C24.6613 33.3524 24.0641 33.5998 23.4414 33.5998C22.8187 33.5998 22.2216 33.3524 21.7813 32.9121L15.5313 26.6621C15.3128 26.4444 15.1394 26.1856 15.0211 25.9007C14.9028 25.6159 14.8419 25.3104 14.8419 25.002C14.8419 24.6935 14.9028 24.388 15.0211 24.1032C15.1394 23.8183 15.3128 23.5595 15.5313 23.3418L21.7813 17.0918C21.9993 16.8738 22.2581 16.7008 22.5429 16.5829C22.8278 16.4649 23.1331 16.4041 23.4414 16.4041C23.7497 16.4041 24.055 16.4649 24.3399 16.5829C24.6247 16.7008 24.8836 16.8738 25.1016 17.0918C25.3196 17.3098 25.4925 17.5686 25.6105 17.8535C25.7285 18.1383 25.7892 18.4436 25.7892 18.752C25.7892 19.0603 25.7285 19.3656 25.6105 19.6504C25.4925 19.9353 25.3196 20.1941 25.1016 20.4121L22.8516 22.6562H32.8125C33.4341 22.6562 34.0303 22.9032 34.4698 23.3427C34.9093 23.7823 35.1563 24.3784 35.1563 25Z" fill="#EDD98A"/>
</svg>
