<svg width="442" height="486" viewBox="0 0 442 486" fill="none" xmlns="http://www.w3.org/2000/svg">
<path d="M94.3867 47.8511C94.3867 73.8085 73.3441 94.8511 47.3867 94.8511C21.4293 94.8511 0.386719 73.8085 0.386719 47.8511C0.386719 21.8937 21.4293 0.851074 47.3867 0.851074C73.3441 0.851074 94.3867 21.8937 94.3867 47.8511ZM7.73502 47.8511C7.73502 69.7501 25.4877 87.5028 47.3867 87.5028C69.2858 87.5028 87.0384 69.7501 87.0384 47.8511C87.0384 25.952 69.2858 8.19937 47.3867 8.19937C25.4877 8.19937 7.73502 25.952 7.73502 47.8511Z" fill="#EDD98A"/>
<path d="M79.7228 48.0191C79.7228 65.785 65.3207 80.1871 47.5548 80.1871C29.7888 80.1871 15.3867 65.785 15.3867 48.0191C15.3867 30.2532 29.7888 15.8511 47.5548 15.8511C65.3207 15.8511 79.7228 30.2532 79.7228 48.0191ZM20.4161 48.0191C20.4161 63.0074 32.5665 75.1578 47.5548 75.1578C62.543 75.1578 74.6934 63.0074 74.6934 48.0191C74.6934 33.0308 62.543 20.8804 47.5548 20.8804C32.5665 20.8804 20.4161 33.0308 20.4161 48.0191Z" fill="#F7EFCE"/>
<path d="M441.387 450.851C441.387 470.181 425.717 485.851 406.387 485.851C387.057 485.851 371.387 470.181 371.387 450.851C371.387 431.521 387.057 415.851 406.387 415.851C425.717 415.851 441.387 431.521 441.387 450.851ZM376.859 450.851C376.859 467.159 390.079 480.379 406.387 480.379C422.695 480.379 435.915 467.159 435.915 450.851C435.915 434.543 422.695 421.323 406.387 421.323C390.079 421.323 376.859 434.543 376.859 450.851Z" fill="#1633B7"/>
<path d="M429.474 450.87C429.474 463.611 419.146 473.939 406.406 473.939C393.666 473.939 383.338 463.611 383.338 450.87C383.338 438.13 393.666 427.802 406.406 427.802C419.146 427.802 429.474 438.13 429.474 450.87ZM386.945 450.87C386.945 461.619 395.658 470.332 406.406 470.332C417.154 470.332 425.868 461.619 425.868 450.87C425.868 440.122 417.154 431.409 406.406 431.409C395.658 431.409 386.945 440.122 386.945 450.87Z" fill="#F7EFCE"/>
</svg>
