<svg width="58" height="58" viewBox="0 0 58 58" fill="none" xmlns="http://www.w3.org/2000/svg">
<path d="M57.2629 29.2424C57.2629 44.8626 44.6003 57.5253 28.9801 57.5253C13.3599 57.5253 0.697266 44.8626 0.697266 29.2424C0.697266 13.6222 13.3599 0.959595 28.9801 0.959595C44.6003 0.959595 57.2629 13.6222 57.2629 29.2424ZM5.11919 29.2424C5.11919 42.4204 15.8021 53.1033 28.9801 53.1033C42.1581 53.1033 52.841 42.4204 52.841 29.2424C52.841 16.0644 42.1581 5.38152 28.9801 5.38152C15.8021 5.38152 5.11919 16.0644 5.11919 29.2424Z" fill="#1633B7"/>
<path d="M47.6354 29.2581C47.6354 39.5533 39.2896 47.8991 28.9945 47.8991C18.6994 47.8991 10.3535 39.5533 10.3535 29.2581C10.3535 18.963 18.6994 10.6172 28.9945 10.6172C39.2896 10.6172 47.6354 18.963 47.6354 29.2581ZM13.268 29.2581C13.268 37.9436 20.309 44.9846 28.9945 44.9846C37.68 44.9846 44.721 37.9436 44.721 29.2581C44.721 20.5726 37.68 13.5316 28.9945 13.5316C20.309 13.5316 13.268 20.5726 13.268 29.2581Z" fill="#F7EFCE"/>
</svg>
