<svg width="76" height="76" viewBox="0 0 76 76" fill="none" xmlns="http://www.w3.org/2000/svg">
<path d="M75.9596 37.9798C75.9596 58.9555 58.9555 75.9596 37.9798 75.9596C17.0041 75.9596 0 58.9555 0 37.9798C0 17.0041 17.0041 0 37.9798 0C58.9555 0 75.9596 17.0041 75.9596 37.9798ZM5.93802 37.9798C5.93802 55.676 20.2836 70.0216 37.9798 70.0216C55.676 70.0216 70.0216 55.676 70.0216 37.9798C70.0216 20.2836 55.676 5.93802 37.9798 5.93802C20.2836 5.93802 5.93802 20.2836 5.93802 37.9798Z" fill="#EDD98A"/>
<path d="M64.1098 38.1156C64.1098 52.4719 52.4718 64.11 38.1155 64.11C23.7592 64.11 12.1211 52.4719 12.1211 38.1156C12.1211 23.7593 23.7592 12.1212 38.1155 12.1212C52.4718 12.1212 64.1098 23.7593 64.1098 38.1156ZM16.1852 38.1156C16.1852 50.2273 26.0037 60.0458 38.1155 60.0458C50.2272 60.0458 60.0457 50.2273 60.0457 38.1156C60.0457 26.0039 50.2272 16.1854 38.1155 16.1854C26.0037 16.1854 16.1852 26.0039 16.1852 38.1156Z" fill="#F7EFCE"/>
</svg>
