<svg width="240" height="50" viewBox="0 0 240 50" fill="none" xmlns="http://www.w3.org/2000/svg">
<g clip-path="url(#clip0_152_361)">
<path d="M64.5406 37V21H60.4206C60.1439 21.0282 59.8672 20.9464 59.6502 20.7725C59.4332 20.5985 59.2933 20.3462 59.2606 20.07V18.3C59.2497 18.0221 59.3484 17.7511 59.5354 17.5453C59.7225 17.3395 59.9829 17.2155 60.2606 17.2H64.5306V10.83C64.506 10.3886 64.6575 9.9554 64.9518 9.62547C65.2461 9.29555 65.6592 9.09579 66.1006 9.07H67.4006C67.62 9.05924 67.8393 9.09185 68.046 9.16598C68.2528 9.2401 68.4429 9.35428 68.6054 9.50197C68.768 9.64967 68.8998 9.82797 68.9933 10.0267C69.0869 10.2254 69.1403 10.4406 69.1506 10.66V17.2H75.5306C75.8155 17.1808 76.0965 17.2752 76.312 17.4626C76.5276 17.65 76.6601 17.9151 76.6806 18.2V19.83C76.6832 19.9722 76.6575 20.1135 76.6049 20.2456C76.5524 20.3777 76.474 20.4981 76.3744 20.5996C76.2747 20.7011 76.1559 20.7817 76.0247 20.8367C75.8936 20.8917 75.7528 20.92 75.6106 20.92H69.1506V36.92C69.1506 39.72 70.0906 40.71 72.6206 40.71H75.5306C75.6678 40.6962 75.8064 40.7095 75.9385 40.7493C76.0706 40.7891 76.1935 40.8544 76.3003 40.9417C76.4071 41.029 76.4957 41.1365 76.5609 41.258C76.6262 41.3796 76.6668 41.5128 76.6806 41.65V43.3C76.7058 43.5925 76.6151 43.8832 76.428 44.1095C76.241 44.3358 75.9726 44.4796 75.6806 44.51C75.6176 44.5199 75.5535 44.5199 75.4906 44.51H72.4906C66.7206 44.51 64.5806 42.43 64.5806 36.99" fill="white"/>
<path d="M84.6 26.37V29H98.23V26.32C98.23 22.14 95.75 20.11 91.36 20.11C86.97 20.11 84.6 22.2 84.6 26.37ZM80 34.89V27C80 20.19 84.18 16.61 91.32 16.61C98.46 16.61 102.62 20 102.62 26.7V30.7C102.684 31.0898 102.59 31.4889 102.359 31.8096C102.128 32.1302 101.78 32.3462 101.39 32.41C101.234 32.43 101.076 32.43 100.92 32.41H84.6V35.26C84.6 39.49 86.8 41.53 91.69 41.53C96.08 41.53 97.95 39.93 97.95 37.24V36.91C97.95 36.42 98.17 36.2 98.72 36.2H101.58C101.667 36.1932 101.754 36.2036 101.837 36.2306C101.919 36.2576 101.996 36.3007 102.062 36.3573C102.128 36.414 102.182 36.4832 102.221 36.5609C102.26 36.6386 102.284 36.7232 102.29 36.81V37.3C102.29 42.3 98.89 45.1 91.69 45.1C84.11 45.11 80 41.59 80 34.89Z" fill="white"/>
<path d="M107.001 37.64V36.81C106.997 36.7062 107.013 36.6027 107.049 36.5053C107.085 36.4079 107.14 36.3186 107.211 36.2424C107.281 36.1663 107.366 36.1048 107.46 36.0615C107.555 36.0181 107.657 35.9939 107.761 35.99C107.797 35.9849 107.834 35.9849 107.871 35.99H110.401C110.491 35.9788 110.582 35.9854 110.669 36.0095C110.757 36.0336 110.838 36.0747 110.91 36.1304C110.981 36.1861 111.041 36.2554 111.086 36.3343C111.131 36.4131 111.159 36.5 111.171 36.59C111.18 36.6462 111.18 36.7037 111.171 36.76V37.58C111.171 40.27 113.311 41.58 117.661 41.58C122.011 41.58 124.081 39.99 124.081 37.24V36.64C124.081 34.22 122.711 33.51 120.291 33.18L114.291 32.35C109.291 31.69 107.091 29.71 107.091 25.35V24.86C107.091 19.75 110.721 16.61 117.591 16.61C124.461 16.61 127.861 19.2 127.861 24V24.6C127.883 24.8077 127.824 25.0161 127.695 25.1806C127.566 25.345 127.378 25.4525 127.171 25.48H124.511C124.415 25.4941 124.318 25.4893 124.225 25.4657C124.131 25.4422 124.044 25.4004 123.967 25.3427C123.889 25.2851 123.824 25.2128 123.775 25.1299C123.726 25.0471 123.694 24.9553 123.681 24.86C123.671 24.7937 123.671 24.7263 123.681 24.66V24.11C123.681 21.4433 121.651 20.11 117.591 20.11C113.351 20.11 111.381 21.65 111.381 24.4V25C111.381 27.41 112.811 28.13 115.221 28.46L121.221 29.28C126.161 29.94 128.361 31.92 128.361 36.28V36.88C128.361 41.99 124.621 45.18 117.651 45.18C110.681 45.18 107.001 42.53 107.001 37.64Z" fill="white"/>
<path d="M136 37V21H131.88C131.742 21.0138 131.604 21.0004 131.472 20.9607C131.34 20.9209 131.217 20.8555 131.11 20.7682C131.003 20.6809 130.915 20.5735 130.849 20.4519C130.784 20.3304 130.743 20.1972 130.73 20.06V18.3C130.716 18.1605 130.731 18.0196 130.775 17.8865C130.819 17.7534 130.89 17.631 130.985 17.5273C131.079 17.4236 131.194 17.3408 131.322 17.2844C131.451 17.228 131.589 17.1993 131.73 17.2H136V10.83C135.975 10.3885 136.127 9.95537 136.421 9.62544C136.715 9.29552 137.128 9.09576 137.57 9.06997H138.86C139.301 9.04539 139.734 9.19686 140.064 9.49117C140.394 9.78548 140.594 10.1986 140.62 10.64V17.2H147C147.286 17.1806 147.568 17.2747 147.785 17.4619C148.002 17.6491 148.137 17.9142 148.16 18.2V19.82C148.16 20.1091 148.045 20.3863 147.84 20.5907C147.636 20.7951 147.359 20.91 147.07 20.91H140.6V36.91C140.6 39.71 141.53 40.7 144.06 40.7H147C147.142 40.6863 147.286 40.7016 147.422 40.7449C147.559 40.7883 147.685 40.8588 147.793 40.9522C147.902 41.0457 147.99 41.1601 148.053 41.2886C148.116 41.4171 148.152 41.5571 148.16 41.7V43.3C148.182 43.5919 148.091 43.8812 147.904 44.1069C147.717 44.3327 147.451 44.4771 147.16 44.51H144C138.23 44.51 136.08 42.43 136.08 36.99" fill="white"/>
<path d="M154.059 38.73V6.86996C154.05 6.69918 154.074 6.52822 154.131 6.36688C154.188 6.20553 154.276 6.05696 154.39 5.92969C154.504 5.80243 154.642 5.69896 154.797 5.62521C154.951 5.55147 155.118 5.50891 155.289 5.49996H155.869C156.041 5.48341 156.214 5.50082 156.378 5.55119C156.543 5.60155 156.696 5.68389 156.829 5.79348C156.962 5.90308 157.072 6.03779 157.152 6.1899C157.233 6.34201 157.283 6.50853 157.299 6.67996V38.51C157.299 40.99 157.909 41.76 160.109 41.76H161.999C162.11 41.7475 162.222 41.757 162.328 41.7881C162.435 41.8191 162.534 41.871 162.621 41.9408C162.707 42.0105 162.779 42.0968 162.832 42.1945C162.885 42.2922 162.918 42.3994 162.929 42.51V43.58C162.935 43.6969 162.917 43.8137 162.877 43.9237C162.837 44.0338 162.776 44.1349 162.697 44.2212C162.618 44.3076 162.523 44.3776 162.417 44.4271C162.311 44.4767 162.196 44.5048 162.079 44.51H159.909C155.519 44.51 154.029 42.92 154.029 38.74" fill="white"/>
<path d="M212.45 34.94V27C212.45 22.05 209.65 19.47 204.7 19.47C199.75 19.47 197 22 197 27V35C197 40 199.81 42.48 204.69 42.48C209.57 42.48 212.44 40 212.44 35M196.78 41.43V43.43C196.799 43.6054 196.784 43.7829 196.734 43.9523C196.685 44.1217 196.603 44.2797 196.492 44.4172C196.382 44.5547 196.245 44.6691 196.09 44.7536C195.935 44.8382 195.765 44.8913 195.59 44.91C195.51 44.915 195.43 44.915 195.35 44.91H195.24C195.062 44.9265 194.882 44.9078 194.712 44.8549C194.541 44.802 194.382 44.716 194.245 44.6018C194.107 44.4875 193.994 44.3473 193.911 44.1892C193.827 44.031 193.776 43.858 193.76 43.68C193.749 43.597 193.749 43.513 193.76 43.43V6.87002C193.75 6.69844 193.775 6.5267 193.832 6.36472C193.89 6.20275 193.979 6.05375 194.094 5.92635C194.209 5.79895 194.349 5.69568 194.504 5.6225C194.66 5.54932 194.828 5.50769 195 5.50002H195.58C195.924 5.4694 196.267 5.57628 196.533 5.79734C196.799 6.01841 196.967 6.33571 197 6.68002V20.28C198.65 18.02 201.34 16.81 205 16.81C211.48 16.81 215.71 20.49 215.71 27.14V34.78C215.71 41.43 211.48 45.05 205 45.05C201.2 45.05 198.4 43.73 196.75 41.37" fill="white"/>
<path d="M219.61 37.86V36.7C219.596 36.5264 219.651 36.3544 219.763 36.2214C219.876 36.0884 220.036 36.0052 220.21 35.99H221.92C222.093 35.9758 222.264 36.0294 222.399 36.1395C222.533 36.2496 222.619 36.4075 222.64 36.58V37.8C222.64 40.93 225.05 42.53 229.72 42.53C234.39 42.53 236.87 40.6 236.87 37.42V36.87C236.87 33.87 235.11 33.19 232.2 32.75L226.87 32C222.03 31.28 219.67 29.52 219.67 25.24V24.75C219.67 19.97 223.08 16.83 229.67 16.83C236.04 16.83 239.45 19.42 239.45 24.03V24.8C239.456 24.8867 239.446 24.9739 239.419 25.0566C239.392 25.1393 239.349 25.2158 239.292 25.2818C239.236 25.3478 239.166 25.4019 239.089 25.4411C239.011 25.4802 238.926 25.5036 238.84 25.51H237.09C237.008 25.5168 236.926 25.5074 236.848 25.4825C236.77 25.4575 236.698 25.4173 236.636 25.3644C236.574 25.3114 236.523 25.2466 236.485 25.1738C236.448 25.1009 236.426 25.0215 236.42 24.94C236.415 24.8934 236.415 24.8465 236.42 24.8V24C236.42 20.92 234.06 19.39 229.66 19.39C225.04 19.39 222.79 21.25 222.79 24.39V25C222.79 28 224.55 28.68 227.46 29.12L232.79 29.89C237.63 30.6 239.99 32.36 239.99 36.64V37.19C239.99 41.97 236.47 45.1 229.71 45.1C222.95 45.1 219.6 42.58 219.6 37.91" fill="white"/>
<path d="M177.421 42.42C182.311 42.42 185.111 39.89 185.111 34.94V27C185.111 22.05 182.311 19.47 177.421 19.47C172.531 19.47 169.671 22 169.671 27V35C169.671 40 172.481 42.48 177.421 42.48M177.091 45.11C170.611 45.11 166.381 41.49 166.381 34.84V27.14C166.381 20.49 170.611 16.81 177.091 16.81C180.771 16.81 183.461 18.02 185.091 20.28V18C185.081 17.8271 185.106 17.654 185.164 17.4908C185.222 17.3277 185.312 17.1776 185.428 17.0492C185.544 16.9209 185.685 16.8169 185.841 16.7432C185.998 16.6695 186.168 16.6276 186.341 16.62C186.401 16.615 186.461 16.615 186.521 16.62H187.001C187.17 16.6119 187.34 16.6373 187.499 16.6948C187.659 16.7523 187.806 16.8407 187.931 16.9549C188.056 17.0692 188.158 17.2071 188.23 17.3606C188.302 17.5142 188.343 17.6805 188.351 17.85V43.35C188.369 43.5266 188.352 43.7051 188.301 43.8752C188.25 44.0452 188.165 44.2035 188.053 44.341C187.941 44.4785 187.802 44.5925 187.646 44.6764C187.489 44.7603 187.318 44.8125 187.141 44.83C187.051 44.84 186.961 44.84 186.871 44.83H186.761C186.407 44.8547 186.058 44.7381 185.789 44.5056C185.521 44.2732 185.356 43.9439 185.331 43.59C185.321 43.5103 185.321 43.4297 185.331 43.35V41.35C183.681 43.71 180.881 45.03 177.091 45.03" fill="white"/>
<path d="M40.22 43.56C40.2254 43.6769 40.2076 43.7937 40.1678 43.9038C40.128 44.0138 40.0668 44.1149 39.9879 44.2013C39.9089 44.2877 39.8137 44.3576 39.7077 44.4072C39.6017 44.4567 39.4869 44.4849 39.37 44.49H37.2C32.81 44.49 31.33 42.9 31.33 38.73V6.88C31.308 6.53934 31.422 6.20386 31.6469 5.94707C31.8719 5.69028 32.1894 5.53311 32.53 5.51H33.14C33.3114 5.49489 33.4841 5.51369 33.6482 5.56531C33.8123 5.61694 33.9646 5.70039 34.0965 5.81089C34.2283 5.92139 34.3371 6.05679 34.4167 6.20934C34.4962 6.3619 34.5449 6.52862 34.56 6.7V38.51C34.56 40.98 35.17 41.75 37.36 41.75H39.29C39.3978 41.736 39.5073 41.7437 39.6122 41.7724C39.717 41.8011 39.8151 41.8505 39.9007 41.9175C39.9863 41.9845 40.0577 42.0678 40.1108 42.1627C40.1639 42.2575 40.1976 42.362 40.21 42.47C40.2144 42.5032 40.2144 42.5368 40.21 42.57L40.22 43.56ZM25.4 19.84C25.4013 19.9831 25.3744 20.1251 25.3209 20.2579C25.2673 20.3906 25.1881 20.5115 25.0878 20.6137C24.9875 20.7158 24.8681 20.7972 24.7364 20.8532C24.6046 20.9092 24.4631 20.9387 24.32 20.94H17.87V36.94C17.87 39.74 18.81 40.73 21.33 40.73H24.24C24.3825 40.7163 24.5262 40.7316 24.6626 40.775C24.799 40.8183 24.9252 40.8888 25.0336 40.9823C25.1419 41.0757 25.2303 41.1901 25.2933 41.3186C25.3562 41.4472 25.3926 41.5871 25.4 41.73V43.36C25.4226 43.652 25.3309 43.9413 25.1444 44.167C24.9579 44.3927 24.691 44.5372 24.4 44.57H21.19C15.42 44.57 13.28 42.48 13.28 37.05V21H9.14C9.00155 21.0197 8.86051 21.0101 8.72598 20.9719C8.59146 20.9337 8.46644 20.8677 8.35901 20.7782C8.25158 20.6887 8.16412 20.5776 8.10228 20.4522C8.04044 20.3267 8.0056 20.1897 8 20.05C7.99002 19.9804 7.99002 19.9096 8 19.84V18.3C7.98614 18.1693 7.99817 18.0372 8.03541 17.9112C8.07265 17.7851 8.13436 17.6677 8.21701 17.5655C8.29967 17.4634 8.40165 17.3785 8.51713 17.3158C8.6326 17.2531 8.75931 17.2137 8.89 17.2C8.97638 17.19 9.06362 17.19 9.15 17.2H13.27V10.84C13.2482 10.3976 13.4019 9.96446 13.6978 9.63485C13.9937 9.30524 14.4078 9.10583 14.85 9.08H16.1C16.3194 9.06924 16.5387 9.10186 16.7454 9.17598C16.9522 9.2501 17.1423 9.36428 17.3048 9.51198C17.4674 9.65967 17.5992 9.83797 17.6928 10.0367C17.7863 10.2354 17.8397 10.4506 17.85 10.67V17.21H24.22C24.3632 17.1977 24.5075 17.2138 24.6445 17.2575C24.7814 17.3012 24.9084 17.3715 25.0181 17.4644C25.1278 17.5574 25.218 17.6711 25.2835 17.7991C25.3491 17.927 25.3887 18.0667 25.4 18.21V19.86V19.84ZM46.33 0H3.67C2.69828 0.00525268 1.76785 0.393599 1.08072 1.08072C0.393599 1.76785 0.00525268 2.69828 0 3.67L0 46.33C0.00525268 47.3017 0.393599 48.2322 1.08072 48.9193C1.76785 49.6064 2.69828 49.9947 3.67 50H46.33C47.3017 49.9947 48.2322 49.6064 48.9193 48.9193C49.6064 48.2322 49.9947 47.3017 50 46.33V3.67C49.9947 2.69828 49.6064 1.76785 48.9193 1.08072C48.2322 0.393599 47.3017 0.00525268 46.33 0Z" fill="white"/>
<path d="M50.0708 0.259978V0.449978C50.0693 0.466122 50.0713 0.482408 50.0768 0.497671C50.0823 0.512933 50.0911 0.526795 50.1025 0.538262C50.114 0.54973 50.1279 0.55852 50.1431 0.564003C50.1584 0.569486 50.1747 0.571526 50.1908 0.569978H50.5508V1.68998C50.5508 1.75998 50.5508 1.78998 50.6508 1.78998H50.9308C51.0008 1.78998 51.0408 1.78998 51.0408 1.68998V0.569978H51.4008C51.417 0.571526 51.4332 0.569486 51.4485 0.564003C51.4638 0.55852 51.4776 0.54973 51.4891 0.538262C51.5006 0.526795 51.5094 0.512933 51.5148 0.497671C51.5203 0.482408 51.5224 0.466122 51.5208 0.449978V0.259978C51.5224 0.243834 51.5203 0.227548 51.5148 0.212286C51.5094 0.197023 51.5006 0.183161 51.4891 0.171694C51.4776 0.160226 51.4638 0.151436 51.4485 0.145953C51.4332 0.14047 51.417 0.13843 51.4008 0.139978H50.2008C50.1108 0.139978 50.0708 0.139978 50.0708 0.259978ZM52.0708 1.68998V0.829978L52.2808 1.30998C52.29 1.35051 52.313 1.3866 52.3458 1.41212C52.3786 1.43764 52.4193 1.45101 52.4608 1.44998C52.504 1.45344 52.5471 1.44118 52.582 1.41546C52.6169 1.38974 52.6413 1.35228 52.6508 1.30998L52.9008 0.829978V1.68998C52.9008 1.75998 52.9508 1.78998 53.0208 1.78998H53.2708C53.3408 1.78998 53.3708 1.78998 53.3708 1.68998V0.299978C53.3723 0.278585 53.3692 0.257123 53.3617 0.237039C53.3541 0.216956 53.3424 0.198717 53.3272 0.183554C53.3121 0.168391 53.2938 0.156655 53.2738 0.149138C53.2537 0.141621 53.2322 0.138497 53.2108 0.139978H52.9108C52.8732 0.138323 52.8361 0.14921 52.8053 0.170929C52.7745 0.192649 52.7519 0.22397 52.7408 0.259978L52.5408 0.739978L52.3408 0.259978C52.3314 0.222991 52.3092 0.190572 52.278 0.168568C52.2468 0.146564 52.2088 0.136424 52.1708 0.139978H51.8308C51.7884 0.139978 51.7477 0.156835 51.7177 0.186841C51.6877 0.216847 51.6708 0.257543 51.6708 0.299978V1.68998C51.6707 1.704 51.6736 1.71787 51.6793 1.73071C51.6849 1.74354 51.6932 1.75504 51.7035 1.76447C51.7139 1.7739 51.7262 1.78105 51.7395 1.78544C51.7528 1.78983 51.7669 1.79138 51.7808 1.78998H52.0008C52.0708 1.78998 52.1108 1.78998 52.1108 1.68998" fill="white"/>
</g>
<defs>
<clipPath id="clip0_152_361">
<rect width="240" height="50" fill="white"/>
</clipPath>
</defs>
</svg>
