<svg width="32" height="32" viewBox="0 0 32 32" fill="none" xmlns="http://www.w3.org/2000/svg">
<g clip-path="url(#clip0_101_5)">
<path d="M24.6528 15.9999C24.6528 11.5743 26.696 9.0879 28.296 9.0879H30.4C29.3312 7.3935 28.4464 6.3999 24.5472 6.3999H8.5344C2.56 6.3999 0 11.9055 0 15.9999C0 20.0943 2.56 25.5999 8.5344 25.5999H24.5472C28.448 25.5999 29.3312 24.6063 30.4 22.9119H28.296C26.696 22.9119 24.6528 20.4255 24.6528 15.9999ZM20.3008 18.8719C20.0384 19.2719 19.2192 18.8975 19.2192 18.8975L14.488 16.7567C14.488 16.7567 14.0656 17.8287 13.7408 18.5823C13.4128 19.3359 13.1632 20.1887 11.8064 19.2351C10.448 18.2783 6.0768 14.0351 6.0768 14.0351C6.0768 14.0351 5.5248 13.5807 5.8 13.1535C6.0608 12.7503 6.8816 13.1279 6.8816 13.1279L11.6112 15.2655C11.6112 15.2655 12.0352 14.1967 12.36 13.4431C12.688 12.6911 12.9376 11.8335 14.2944 12.7903C15.6528 13.7439 20.0224 17.9903 20.0224 17.9903C20.0224 17.9903 20.5744 18.4431 20.3008 18.8719ZM30.1984 12.6847H29C28.1056 12.6847 27.232 13.8911 27.232 15.8511C27.232 17.8143 28.1072 19.0191 29 19.0191H30.1984C31.0944 19.0191 32 17.8127 32 15.8511C32 13.8895 31.0944 12.6847 30.1984 12.6847Z" fill="#E1B43E"/>
</g>
<defs>
<clipPath id="clip0_101_5">
<rect width="32" height="32" fill="white"/>
</clipPath>
</defs>
</svg>
