<svg width="111" height="111" viewBox="0 0 111 111" fill="none" xmlns="http://www.w3.org/2000/svg">
<path d="M111 55.5C111 86.1518 86.1518 111 55.5 111C24.8482 111 0 86.1518 0 55.5C0 24.8482 24.8482 0 55.5 0C86.1518 0 111 24.8482 111 55.5ZM8.67725 55.5C8.67725 81.3595 29.6405 102.323 55.5 102.323C81.3595 102.323 102.323 81.3595 102.323 55.5C102.323 29.6405 81.3595 8.67725 55.5 8.67725C29.6405 8.67725 8.67725 29.6405 8.67725 55.5Z" fill="#1633B7"/>
<path d="M92.1591 55.5795C92.1591 75.7819 75.7819 92.1591 55.5795 92.1591C35.3772 92.1591 19 75.7819 19 55.5795C19 35.3772 35.3772 19 55.5795 19C75.7819 19 92.1591 35.3772 92.1591 55.5795ZM24.7191 55.5795C24.7191 72.6233 38.5358 86.44 55.5795 86.44C72.6233 86.44 86.44 72.6233 86.44 55.5795C86.44 38.5358 72.6233 24.7191 55.5795 24.7191C38.5358 24.7191 24.7191 38.5358 24.7191 55.5795Z" fill="#579AFF"/>
</svg>
