<svg width="135" height="135" viewBox="0 0 135 135" fill="none" xmlns="http://www.w3.org/2000/svg">
<circle cx="7.5" cy="7.5" r="7.5" fill="#14205A"/>
<circle cx="37.5" cy="7.5" r="7.5" fill="#14205A"/>
<circle cx="67.5" cy="7.5" r="7.5" fill="#14205A"/>
<circle cx="97.5" cy="7.5" r="7.5" fill="#14205A"/>
<circle cx="127.5" cy="7.5" r="7.5" fill="#14205A"/>
<circle cx="127.5" cy="37.5" r="7.5" fill="#14205A"/>
<circle cx="127.5" cy="67.5" r="7.5" fill="#14205A"/>
<circle cx="127.5" cy="97.5" r="7.5" fill="#14205A"/>
<circle cx="127.5" cy="127.5" r="7.5" fill="#14205A"/>
<circle cx="97.5" cy="37.5" r="7.5" fill="#14205A"/>
<circle cx="97.5" cy="67.5" r="7.5" fill="#14205A"/>
<circle cx="97.5" cy="97.5" r="7.5" fill="#14205A"/>
<circle cx="97.5" cy="127.5" r="7.5" fill="#14205A"/>
<circle cx="67.5" cy="37.5" r="7.5" fill="#14205A"/>
<circle cx="67.5" cy="67.5" r="7.5" fill="#14205A"/>
<circle cx="67.5" cy="97.5" r="7.5" fill="#14205A"/>
<circle cx="67.5" cy="127.5" r="7.5" fill="#14205A"/>
<circle cx="37.5" cy="37.5" r="7.5" fill="#14205A"/>
<circle cx="37.5" cy="67.5" r="7.5" fill="#14205A"/>
<circle cx="37.5" cy="97.5" r="7.5" fill="#14205A"/>
<circle cx="37.5" cy="127.5" r="7.5" fill="#14205A"/>
<circle cx="7.5" cy="37.5" r="7.5" fill="#14205A"/>
<circle cx="7.5" cy="67.5" r="7.5" fill="#14205A"/>
<circle cx="7.5" cy="97.5" r="7.5" fill="#14205A"/>
<circle cx="7.5" cy="127.5" r="7.5" fill="#14205A"/>
</svg>
