<svg width="132" height="132" viewBox="0 0 132 132" fill="none" xmlns="http://www.w3.org/2000/svg">
<path d="M132 66C132 102.451 102.451 132 66 132C29.5492 132 0 102.451 0 66C0 29.5492 29.5492 0 66 0C102.451 0 132 29.5492 132 66ZM10.3189 66C10.3189 96.7518 35.2482 121.681 66 121.681C96.7518 121.681 121.681 96.7518 121.681 66C121.681 35.2482 96.7518 10.3189 66 10.3189C35.2482 10.3189 10.3189 35.2482 10.3189 66Z" fill="#1633B7"/>
<path d="M109.537 66.0366C109.537 90.061 90.061 109.537 66.0366 109.537C42.0122 109.537 22.5366 90.061 22.5366 66.0366C22.5366 42.0122 42.0122 22.5366 66.0366 22.5366C90.061 22.5366 109.537 42.0122 109.537 66.0366ZM29.3377 66.0366C29.3377 86.3049 45.7684 102.736 66.0366 102.736C86.3049 102.736 102.736 86.3049 102.736 66.0366C102.736 45.7684 86.3049 29.3377 66.0366 29.3377C45.7684 29.3377 29.3377 45.7684 29.3377 66.0366Z" fill="#F7EFCE"/>
</svg>
