<svg width="509" height="510" viewBox="0 0 509 510" fill="none" xmlns="http://www.w3.org/2000/svg">
<path d="M94.2292 47.8511C94.2292 73.8085 73.1866 94.8511 47.2292 94.8511C21.2719 94.8511 0.229248 73.8085 0.229248 47.8511C0.229248 21.8937 21.2719 0.851074 47.2292 0.851074C73.1866 0.851074 94.2292 21.8937 94.2292 47.8511ZM7.57755 47.8511C7.57755 69.7501 25.3302 87.5028 47.2292 87.5028C69.1283 87.5028 86.881 69.7501 86.881 47.8511C86.881 25.952 69.1283 8.19937 47.2292 8.19937C25.3302 8.19937 7.57755 25.952 7.57755 47.8511Z" fill="#EDD98A"/>
<path d="M79.5653 48.0191C79.5653 65.785 65.1632 80.1871 47.3973 80.1871C29.6314 80.1871 15.2292 65.785 15.2292 48.0191C15.2292 30.2532 29.6314 15.8511 47.3973 15.8511C65.1632 15.8511 79.5653 30.2532 79.5653 48.0191ZM20.2586 48.0191C20.2586 63.0074 32.409 75.1578 47.3973 75.1578C62.3856 75.1578 74.5359 63.0074 74.5359 48.0191C74.5359 33.0308 62.3856 20.8804 47.3973 20.8804C32.409 20.8804 20.2586 33.0308 20.2586 48.0191Z" fill="#F7EFCE"/>
<path d="M467.229 94.8511C467.229 109.763 455.141 121.851 440.229 121.851C425.318 121.851 413.229 109.763 413.229 94.8511C413.229 79.9394 425.318 67.8511 440.229 67.8511C455.141 67.8511 467.229 79.9394 467.229 94.8511ZM417.451 94.8511C417.451 107.431 427.649 117.63 440.229 117.63C452.81 117.63 463.008 107.431 463.008 94.8511C463.008 82.2708 452.81 72.0724 440.229 72.0724C427.649 72.0724 417.451 82.2708 417.451 94.8511Z" fill="#1633B7"/>
<path d="M457.82 94.6465C457.82 104.475 449.853 112.442 440.025 112.442C430.197 112.442 422.229 104.475 422.229 94.6465C422.229 84.8184 430.197 76.8511 440.025 76.8511C449.853 76.8511 457.82 84.8184 457.82 94.6465ZM425.012 94.6465C425.012 102.938 431.733 109.66 440.025 109.66C448.316 109.66 455.038 102.938 455.038 94.6465C455.038 86.355 448.316 79.6333 440.025 79.6333C431.733 79.6333 425.012 86.355 425.012 94.6465Z" fill="#579AFF"/>
<path d="M508.229 466.851C508.229 490.6 488.978 509.851 465.229 509.851C441.481 509.851 422.229 490.6 422.229 466.851C422.229 443.103 441.481 423.851 465.229 423.851C488.978 423.851 508.229 443.103 508.229 466.851ZM428.952 466.851C428.952 486.887 445.194 503.128 465.229 503.128C485.265 503.128 501.506 486.887 501.506 466.851C501.506 446.816 485.265 430.574 465.229 430.574C445.194 430.574 428.952 446.816 428.952 466.851Z" fill="#1633B7"/>
<path d="M493.594 466.875C493.594 482.527 480.905 495.216 465.253 495.216C449.601 495.216 436.912 482.527 436.912 466.875C436.912 451.223 449.601 438.534 465.253 438.534C480.905 438.534 493.594 451.223 493.594 466.875ZM441.343 466.875C441.343 480.08 452.048 490.785 465.253 490.785C478.458 490.785 489.163 480.08 489.163 466.875C489.163 453.67 478.458 442.965 465.253 442.965C452.048 442.965 441.343 453.67 441.343 466.875Z" fill="#F7EFCE"/>
</svg>
