<svg width="127" height="127" viewBox="0 0 127 127" fill="none" xmlns="http://www.w3.org/2000/svg">
<path d="M127 63.5C127 98.5701 98.5701 127 63.5 127C28.4299 127 0 98.5701 0 63.5C0 28.4299 28.4299 0 63.5 0C98.5701 0 127 28.4299 127 63.5ZM9.92802 63.5C9.92802 93.087 33.913 117.072 63.5 117.072C93.087 117.072 117.072 93.087 117.072 63.5C117.072 33.913 93.087 9.92802 63.5 9.92802C33.913 9.92802 9.92802 33.913 9.92802 63.5Z" fill="#EDD98A"/>
<path d="M107.188 63.7272C107.188 87.7301 87.7301 107.188 63.7272 107.188C39.7243 107.188 20.2661 87.7301 20.2661 63.7272C20.2661 39.7243 39.7243 20.2661 63.7272 20.2661C87.7301 20.2661 107.188 39.7243 107.188 63.7272ZM27.0611 63.7272C27.0611 83.9773 43.4771 100.393 63.7272 100.393C83.9773 100.393 100.393 83.9773 100.393 63.7272C100.393 43.4771 83.9773 27.0611 63.7272 27.0611C43.4771 27.0611 27.0611 43.4771 27.0611 63.7272Z" fill="#F7EFCE"/>
</svg>
