<svg width="161" height="161" viewBox="0 0 161 161" fill="none" xmlns="http://www.w3.org/2000/svg">
<path d="M47.4506 32.9775C73.6568 14.7646 109.666 21.2444 127.879 47.4505C146.092 73.6567 139.612 109.666 113.406 127.878C87.1994 146.091 51.1906 139.612 32.9776 113.405C14.7647 87.1993 21.2445 51.1905 47.4506 32.9775ZM108.25 120.46C130.359 105.094 135.825 74.7154 120.46 52.6065C105.094 30.4975 74.7155 25.0308 52.6066 40.3963C30.4976 55.7617 25.0309 86.1406 40.3963 108.25C55.7618 130.358 86.1407 135.825 108.25 120.46Z" fill="#EDD98A"/>
<path d="M57.9093 47.6641C75.8455 35.1987 100.491 39.6337 112.956 57.5699C125.422 75.5061 120.987 100.151 103.051 112.617C85.1144 125.082 60.469 120.647 48.0036 102.711C35.5382 84.7749 39.9731 60.1296 57.9093 47.6641ZM99.5217 107.539C114.654 97.0228 118.395 76.2306 107.879 61.0987C97.3622 45.9668 76.5701 42.2252 61.4381 52.7417C46.3062 63.2582 42.5647 84.0504 53.0812 99.1823C63.5976 114.314 84.3898 118.056 99.5217 107.539Z" fill="#F7EFCE"/>
</svg>
